# xmcd CD database file
#
# Track frame offsets:
#	183
#	14583
#	32058
#	48445
#	63333
#	83408
#	100908
#	124633
#	143145
#	160858
#	176308
#	193283
#
# Disc length: 2735 seconds
#
# Revision: 1
# Processed by: cddbd v1.4PL0 Copyright (c) Steve Scherf et al.
# Submitted via: Feurio! 1.62 - http://www.feurio.com
#
DISCID=980aad0c
DTITLE=Mick Clarke - All These Blues
DYEAR=1986
DGENRE=blues
TTITLE0=Shake For Me
TTITLE1=Play Some Blues Tonight
TTITLE2=All These Blues
TTITLE3=One Little Problem
TTITLE4=What's Wrong With Anna
TTITLE5=Ain't It Hard
TTITLE6=Slipaway
TTITLE7=The Coast Highway
TTITLE8=Remember
TTITLE9=Nothing To Lose
TTITLE10=Reaching Out
TTITLE11=Re-Heat
EXTD=YEAR:1986 Appaloosa
EXTT0=
EXTT1=
EXTT2=
EXTT3=
EXTT4=
EXTT5=
EXTT6=
EXTT7=
EXTT8=
EXTT9=
EXTT10=
EXTT11=
PLAYORDER=
